<?xml version="1.0" encoding="iso-8859-1"?>
<!-- Generator: Adobe Illustrator 19.0.0, SVG Export Plug-In . SVG Version: 6.00 Build 0)  -->
<svg fill="#f2463d" version="1.1" id="Layer_1" xmlns="http://www.w3.org/2000/svg" xmlns:xlink="http://www.w3.org/1999/xlink" x="0px" y="0px"
	 viewBox="0 0 512 512" style="enable-background:new 0 0 512 512;" xml:space="preserve">
<g>
	<g>
		<path d="M477.76,48.059l-13.82-13.822c-45.66-45.687-119.721-45.614-165.269,0.006l-49.858,49.859
			c5.533-0.611,10.979-1.624,16.627-1.624c22.741,0,44.464,5.531,64.392,15.043l16.062-16.063c19.82-19.889,51.551-19.276,70.826,0
			l13.826,13.826c19.805,19.805,19.341,51.483,0.032,70.794l-136.44,136.454c-19.69,19.757-51.487,19.404-70.761,0.066
			c-10.679-10.654-17.617-15.984-23.356-28.065l-48.41,48.41c8.979,12.043,12.077,14.434,24.43,26.758
			c45.408,45.653,119.641,45.805,165.316,0.051L477.77,213.324C523.376,167.776,523.448,93.682,477.76,48.059z"/>
	</g>
</g>
<g>
	<g>
		<path d="M336.942,161.235c-45.66-45.687-119.721-45.614-165.269,0.006L34.135,298.761
			c-46.606,46.498-44.461,120.683,0.165,165.226l13.743,13.71c45.408,45.653,119.641,45.805,165.317,0.051l61.195-61.219
			c-5.231,0.545-10.514,0.863-15.848,0.863c0,0,0,0-0.011,0c-22.807,0-44.739-5.2-64.682-14.743l-27.875,27.882
			c-19.69,19.756-51.486,19.404-70.761,0.066l-13.924-13.891c-19.514-19.514-19.676-51.151-0.162-70.663l137.606-137.588
			c19.819-19.889,51.548-19.276,70.826,0c9.653,9.654,18.147,16.633,23.47,27.797l48.196-48.198
			C352.464,176.128,349.815,174.109,336.942,161.235z"/>
	</g>
</g>
<g>
</g>
<g>
</g>
<g>
</g>
<g>
</g>
<g>
</g>
<g>
</g>
<g>
</g>
<g>
</g>
<g>
</g>
<g>
</g>
<g>
</g>
<g>
</g>
<g>
</g>
<g>
</g>
<g>
</g>
</svg>
