<?xml version="1.0" encoding="utf-8"?>
<!-- Generator: Adobe Illustrator 23.1.0, SVG Export Plug-In . SVG Version: 6.00 Build 0)  -->
<svg version="1.1" id="Layer_1" xmlns="http://www.w3.org/2000/svg" xmlns:xlink="http://www.w3.org/1999/xlink" x="0px" y="0px"
	 viewBox="0 0 512 512" style="enable-background:new 0 0 512 512;" xml:space="preserve">
<style type="text/css">
	.st0{fill:#F2463D;}
	.st1{fill:#FF6961;}
	.st2{fill:#D63F24;}
	.st3{fill:#F24D44;}
	.st4{fill:#595E62;}
	.st5{fill:#AFB6BB;}
	.st6{fill:#FFFFFF;}
</style>
<path class="st0" d="M256,60.7c107.9,0,195.3,87.4,195.3,195.3S363.9,451.3,256,451.3S60.7,363.9,60.7,256S148.1,60.7,256,60.7z"/>
<path class="st1" d="M256,7.9C393,7.9,504.1,119,504.1,256S393,504.1,256,504.1S7.9,393,7.9,256S119,7.9,256,7.9z M451.3,256
	c0-107.9-87.4-195.3-195.3-195.3S60.7,148.1,60.7,256S148.1,451.3,256,451.3S451.3,363.9,451.3,256z"/>
<path class="st2" d="M60.7,256c0,107.9,87.4,195.3,195.3,195.3V60.7C148.1,60.7,60.7,148.1,60.7,256z"/>
<path class="st3" d="M60.7,256c0-107.9,87.4-195.3,195.3-195.3V7.9C119,7.9,7.9,119,7.9,256S119,504.1,256,504.1v-52.8
	C148.1,451.3,60.7,363.9,60.7,256z"/>
<path d="M256,512c-68.4,0-132.7-26.6-181-75C26.6,388.7,0,324.4,0,256S26.6,123.3,75,75C123.3,26.6,187.6,0,256,0s132.7,26.6,181,75
	c48.3,48.3,75,112.6,75,181s-26.6,132.7-75,181C388.7,485.4,324.4,512,256,512z M256,15.8c-64.2,0-124.5,25-169.8,70.3
	C40.8,131.5,15.8,191.8,15.8,256s25,124.5,70.3,169.8c45.4,45.4,105.7,70.3,169.8,70.3s124.5-25,169.8-70.3
	c45.4-45.4,70.3-105.7,70.3-169.8s-25-124.5-70.3-169.8C380.5,40.8,320.2,15.8,256,15.8z"/>
<path d="M256,459.2c-54.3,0-105.3-21.1-143.7-59.5S52.8,310.3,52.8,256s21.1-105.3,59.5-143.7S201.7,52.8,256,52.8
	s105.3,21.1,143.7,59.5s59.5,89.4,59.5,143.7s-21.1,105.3-59.5,143.7S310.3,459.2,256,459.2z M256,68.6
	C152.7,68.6,68.6,152.7,68.6,256S152.7,443.4,256,443.4S443.4,359.3,443.4,256S359.3,68.6,256,68.6z"/>
<path class="st4" d="M256.5,166.3c-0.2,0-0.3,0-0.5,0c-46.7,0-84.5,37.8-84.5,84.5c0,46.4,37.5,84.1,83.9,84.5c0.2,0,0.3,0,0.5,0
	c46.7,0,84.5-37.8,84.5-84.5C340.5,204.3,303,166.6,256.5,166.3z"/>
<path class="st5" d="M403.8,224.3v52.8h-29.3c-3.1,13.9-8.7,27-16,38.6l20.8,20.8l-37.4,37.4L321,353.1c-11.6,7.4-24.7,13-38.6,16
	v29.3h-52.8v-29.3c-13.9-3.1-27-8.7-38.6-16l-20.8,20.8l-37.4-37.4l20.8-20.8c-7.4-11.6-13-24.7-16-38.6h-29.3v-52.8h29.3
	c3.1-13.9,8.7-27,16-38.6l-20.8-20.8l37.4-37.4l20.8,20.8c11.6-7.4,24.7-13,38.6-16v-29.3h52.8v29.3c13.9,3.1,27,8.7,38.6,16
	l20.8-20.8l37.4,37.4l-20.8,20.8c7.4,11.6,13,24.7,16,38.6H403.8z M340.5,250.7c0-46.4-37.5-84.1-83.9-84.5c-0.2,0-0.3,0-0.5,0
	c-46.7,0-84.5,37.8-84.5,84.5c0,46.4,37.5,84.1,83.9,84.5c0.2,0,0.3,0,0.5,0C302.7,335.2,340.5,297.4,340.5,250.7z"/>
<path d="M290.3,406.4h-68.6v-31.1c-10.2-2.8-20.1-6.9-29.5-12.3l-22,22l-48.6-48.6l22-22c-5.4-9.4-9.5-19.3-12.3-29.5h-31.1v-68.6
	h31.1c2.8-10.2,6.9-20.1,12.3-29.5l-22-22l48.6-48.6l22,22c9.4-5.4,19.3-9.5,29.5-12.3V95h68.6v31.1c10.2,2.8,20.1,6.9,29.5,12.3
	l22-22l48.6,48.6l-22,22c5.4,9.4,9.5,19.3,12.3,29.5h31.1V285h-31.1c-2.8,10.2-6.9,20.1-12.3,29.5l22,22l-48.6,48.6l-22-22
	c-9.4,5.4-19.3,9.5-29.5,12.3L290.3,406.4L290.3,406.4z M237.5,390.6h36.9v-27.8l6.2-1.4c12.7-2.8,24.8-7.8,36.1-15l5.4-3.4
	l19.7,19.7l26.2-26.2l-19.7-19.7l3.4-5.4c7.2-11.3,12.2-23.4,15-36.1l1.4-6.2h27.8v-36.9h-27.8l-1.4-6.2c-2.8-12.7-7.8-24.8-15-36.1
	l-3.4-5.4l19.7-19.7l-26.2-26.2l-19.7,19.7l-5.4-3.4c-11.3-7.2-23.4-12.2-36.1-15l-6.2-1.4v-27.8h-36.9v27.8l-6.2,1.4
	c-12.7,2.8-24.8,7.8-36.1,15l-5.4,3.4l-19.7-19.7L144,164.9l19.7,19.7l-3.4,5.4c-7.2,11.3-12.2,23.4-15,36.1l-1.4,6.2h-27.8v36.9
	h27.8l1.4,6.2c2.8,12.7,7.8,24.8,15,36.1l3.4,5.4L144,336.5l26.2,26.2l19.7-19.7l5.4,3.4c11.3,7.2,23.4,12.2,36.1,15l6.2,1.4
	L237.5,390.6L237.5,390.6z"/>
<path d="M256,343.1h-0.5c-24.6-0.2-47.7-9.8-65-27.3c-17.3-17.4-26.8-40.5-26.8-65.1c0-50.9,41.4-92.4,92.4-92.4h0.6
	c24.6,0.2,47.6,9.8,64.9,27.3c17.3,17.4,26.8,40.5,26.8,65.1C348.4,301.7,306.9,343.1,256,343.1z M256,174.2
	c-42.2,0-76.5,34.3-76.5,76.5c0,41.9,34.1,76.3,76.1,76.5h0.5c42.2,0,76.5-34.3,76.5-76.5c0-41.9-34.1-76.2-76-76.5H256z"/>
<path class="st6" d="M266.6,242.8h-21.1c-7.3,0-13.2-5.9-13.2-13.2c0-3.5,1.4-6.8,3.8-9.2l0.2-0.2c2.4-2.5,5.7-3.8,9.2-3.8h21.1
	c7.3,0,13.2,5.9,13.2,13.2h15.8c0-16-13-29-29-29h-2.6v-13.2h-15.8v13.2h-2.6c-7.8,0-15.1,3-20.5,8.5c-5.5,5.4-8.5,12.7-8.5,20.5
	c0,16,13,29,29,29h21.1c7.3,0,13.2,5.9,13.2,13.2c0,3.5-1.4,6.8-3.8,9.2l-0.2,0.2c-2.4,2.5-5.7,3.8-9.2,3.8h-21.1
	c-7.3,0-13.2-5.9-13.2-13.2h-15.8c0,16,13,29,29,29h2.6v13.2h15.8v-13.2h2.6c7.8,0,15.1-3,20.5-8.5c5.5-5.4,8.5-12.7,8.5-20.5
	C295.6,255.8,282.6,242.8,266.6,242.8z"/>
</svg>
