<svg xmlns="http://www.w3.org/2000/svg" viewBox="0 0 750 500"><g id="freepik--background-complete--inject-2"><rect x="177.77" y="234.3" width="109.86" height="162.99" transform="translate(-141.95 432.04) rotate(-70.85)" style="fill:#ebebeb"></rect><path d="M327.7,290.63a11.2,11.2,0,0,1-1.91.89l-5.59,2.26-20.68,8.09-68.58,26.25-.57.21-.32-.51-.79-1.24-39.52-63.06-11.84-19.2-3.15-5.26a11.81,11.81,0,0,1-1-1.89A10.89,10.89,0,0,1,175,238.9l3.39,5.11L190.62,263l39.9,62.83c.26.43.53.85.78,1.24l-.89-.3,68.74-25.83L320,293.25l5.69-2A10.76,10.76,0,0,1,327.7,290.63Z" style="fill:#e0e0e0"></path><path d="M137.7,341c-.21-.35,16.31-10.55,36.89-22.79s37.44-21.87,37.65-21.52-16.31,10.55-36.9,22.79S137.91,341.3,137.7,341Z" style="fill:#e0e0e0"></path><path d="M263.87,313.11c.38-.13,6.92,18,14.6,40.41s13.59,40.76,13.2,40.89-6.92-18-14.6-40.41S263.48,313.24,263.87,313.11Z" style="fill:#e0e0e0"></path><rect x="483.35" y="222.39" width="154.53" height="104.16" transform="translate(-37.97 97.51) rotate(-9.62)" style="fill:#e0e0e0"></rect><path d="M628.09,210.22a10.69,10.69,0,0,1-1.18,1.61l-3.61,4.43-13.5,16.16c-11.59,13.67-27.45,32.38-45,53.1l-.37.44-.5-.28-1.22-.67-61.62-34.38-18.59-10.56-5-2.93a9.87,9.87,0,0,1-1.7-1.11,11.85,11.85,0,0,1,1.84.86l5.15,2.71,18.81,10.16,61.82,34,1.22.67-.87.16,45.34-52.83,13.83-15.87c1.59-1.77,2.85-3.19,3.81-4.27A12.18,12.18,0,0,1,628.09,210.22Z" style="fill:#ebebeb"></path><path d="M493.14,338.73c-.33-.2,8.74-16.22,20.26-35.78s21.14-35.26,21.47-35.06-8.74,16.21-20.26,35.78S493.47,338.92,493.14,338.73Z" style="fill:#ebebeb"></path><path d="M585.3,258c.26-.28,14,11.77,30.57,26.93s29.89,27.68,29.62,28S631.55,301.14,614.92,286,585,258.31,585.3,258Z" style="fill:#ebebeb"></path><rect x="476.33" y="46.53" width="74.99" height="111.26" transform="translate(230.72 542.97) rotate(-68.53)" style="fill:#ebebeb"></rect><path d="M579.32,88.59a6.19,6.19,0,0,1-1.33.55l-3.87,1.4-14.33,4.95-47.51,16-.39.13-.2-.36-.5-.86L486,66.29c-3.15-5.59-5.71-10.15-7.54-13.42l-2-3.67a7.84,7.84,0,0,1-.64-1.32,7.94,7.94,0,0,1,.82,1.21c.54.91,1.26,2.1,2.17,3.58l7.82,13.27c6.56,11.33,15.55,26.83,25.47,44l.5.87-.59-.23,47.59-15.72L574,90.17,577.93,89A9.11,9.11,0,0,1,579.32,88.59Z" style="fill:#e0e0e0"></path><path d="M448.34,117.67c-.14-.24,11.41-6.75,25.79-14.53S500.27,89.26,500.4,89.5,489,96.25,474.61,104,448.47,117.92,448.34,117.67Z" style="fill:#e0e0e0"></path><path d="M535.16,102.16c.27-.08,4.23,12.45,8.84,28s8.15,28.18,7.88,28.26-4.23-12.44-8.84-28S534.89,102.24,535.16,102.16Z" style="fill:#e0e0e0"></path></g><g id="freepik--Floor--inject-2"><path d="M661.58,457.08c0,.14-128.32.26-286.57.26s-286.59-.12-286.59-.26,128.29-.26,286.59-.26S661.58,456.93,661.58,457.08Z" style="fill:#263238"></path></g><g id="freepik--Character--inject-2"><path d="M116.7,184.46,131,179.39l-6.15-8.21a31.85,31.85,0,0,1-.44-5.49,8.46,8.46,0,0,1,.48-2.78,12.71,12.71,0,0,1,1.49-3.18,1.09,1.09,0,0,0-1-1.82c-1,.25-2.88,2.53-3.73,5.91s-3.17-1.6-4-3.39-3.85-7.23-4.62-7.4c-1.12-.25-1.59.91-.67,2.68s3.29,7.29,2.31,7.71-5.29-8.8-5.29-8.8-.6-2.12-1.74-1.67c-2.06.8,3.27,10.25,3.8,11.13.37.62-.67,1.11-1,.43s-4.11-9.29-6.21-8.49c-1.61.61,4.31,7.81,4.1,10s-3.93-5.91-5.45-5.27c-.56.24-1,.5,1.86,4.86a71.71,71.71,0,0,0,4.51,5.89h0l7.47,12.94" style="fill:#ffbe9d"></path><path d="M245.41,201.94s-7.06-16.48-11.93-24.49c-4.59-7.54-10.67-8.76-13.91-9a22.19,22.19,0,0,0-4.12-.85L189,167.39a25.07,25.07,0,0,0-15.81,5.8c-1.23,1-10.38,11.62-22.53,26.74l-21.25-23-12.67,7.5s13.76,47.51,31,44.25C158,226.77,166,219.65,166,219.65l13.45-10.84.31,1.8c.27,2.19.95,5.73,1.47,7.87,1.62,6.79,2.53,15.73-1,21.65,0,0-4.79,3.67-1,7.7h49.85s7.06-4.79.61-10.11l-4-10.11,2.61-12.34,1-4.94,4.39,7.52s8.68,10.92,17.71,9.58c10.85-1.62,17.14-21.39,7.35-47.53l-11.8,3.59Z" style="fill:#FF725E"></path><g style="opacity:0.4"><polygon points="116.7 184.46 117.95 188.42 132.03 179.83 129.37 176.96 116.7 184.46"></polygon></g><g style="opacity:0.2"><path d="M180.22,240.13a15.72,15.72,0,0,0,10.5-6.46,16.39,16.39,0,0,0,3-12.24,5.44,5.44,0,0,0-2.08-3.9c-1.57-1-3.72-.48-5.35-1.35-1.34-.71-2.05-2.17-3-3.37s-2.22-3.06-3.6-2.46c0,0,1.67,8.8,2.4,12.72s1,9.55-.41,13.66A17,17,0,0,1,180.22,240.13Z"></path></g><path d="M148.62,208a12.61,12.61,0,0,1,.74-4.13,24.68,24.68,0,0,1,1.26-4,12,12,0,0,1-.74,4.13A24.68,24.68,0,0,1,148.62,208Z" style="fill:#263238"></path><path d="M151.78,205.85a16.74,16.74,0,0,1-1.2-5.93,8.58,8.58,0,0,1,.86,2.91A9,9,0,0,1,151.78,205.85Z" style="fill:#263238"></path><polygon points="246.84 147.64 228.74 176.96 242.98 180.93 258.78 156.56 246.84 147.64" style="fill:#455a64"></polygon><path d="M245.71,172.62l.61,4.29,2.53,3.25.25,2.66,9.08-2.76-3.67-13a27,27,0,0,0,.36-5.3l-2.5,3.31-.69-5.4-5.11-4.11a1.25,1.25,0,0,0-1.75.27h0a1.25,1.25,0,0,0,.13,1.61l4.11,3.62.27,4.47-3-2.76a2.16,2.16,0,0,0-1.05-.54l-4.13-.83a1.08,1.08,0,0,0-1.28.95h0a1.08,1.08,0,0,0,.75,1.14l3.76,1.15,3.8,3.84-3.72-1.42-5.05.71a1,1,0,0,0-.84,1h0a1,1,0,0,0,1,1l3.21-.18,1.89.59-4.34,1.15a.86.86,0,0,0-.65.89h0a.87.87,0,0,0,.94.83Z" style="fill:#ffbe9d"></path><g style="opacity:0.4"><polygon points="246.9 183.49 246.51 188.29 260.28 184.5 258.7 179.9 246.9 183.49"></polygon></g><path d="M228.74,177s-1.22-1.65-1.12-1.93,17.22-28.47,17.22-28.47l2,1.08Z" style="fill:#263238"></path><path d="M251.37,155a.63.63,0,1,1,.31,1.06.66.66,0,0,1-.35-1" style="fill:#263238"></path><path d="M240,191.19a2.38,2.38,0,0,1-.52.71,4.68,4.68,0,0,1-2.23,1.16,10,10,0,0,1-4,0,13.73,13.73,0,0,0-5.13-.23,14,14,0,0,0-5.41,3c-1.79,1.37-3.68,3.07-6.22,3.87a10.12,10.12,0,0,1-4,.31,17.55,17.55,0,0,1-4-1.11c-2.62-1-5.13-2.48-7.89-3.48a14.05,14.05,0,0,0-8.35-.58c-2.71.56-5.25,1.5-7.78,2A19.65,19.65,0,0,1,171.14,195a20,20,0,0,1-7-6,14.61,14.61,0,0,1-1.67-2.93c.07,0,.55,1.08,1.84,2.81a20.49,20.49,0,0,0,7,5.76,19.42,19.42,0,0,0,13.09,1.7c2.49-.54,5-1.49,7.78-2.07a14.49,14.49,0,0,1,8.64.59c2.82,1,5.34,2.48,7.91,3.5a17.33,17.33,0,0,0,3.88,1.09,9.85,9.85,0,0,0,3.8-.28c2.4-.74,4.28-2.38,6.08-3.75a14.27,14.27,0,0,1,5.61-3,13.76,13.76,0,0,1,5.26.3,9.9,9.9,0,0,0,3.88.1,4.74,4.74,0,0,0,2.2-1A7.49,7.49,0,0,0,240,191.19Z" style="fill:#fafafa"></path><path d="M245.7,210.24a18.56,18.56,0,0,1-.41-4.43,18.24,18.24,0,0,1,.13-4.45,18.56,18.56,0,0,1,.41,4.43A18.29,18.29,0,0,1,245.7,210.24Z" style="fill:#263238"></path><path d="M214.51,394.11c.43,1.74,10.63,58.93,10.63,58.93l15.63-1.17-2.86-58.4Z" style="fill:#ffbe9d"></path><path d="M241.24,452.78l-.05-1.65-16.65.35.1,5.42,1,0c4.58.15,23.3.46,26.33-.45C255.39,455.46,241.24,452.78,241.24,452.78Z" style="fill:#FF725E"></path><g style="opacity:0.30000000000000004"><path d="M230.65,456.66a5.36,5.36,0,0,0-2.19-3.24,5.92,5.92,0,0,0-3.9-1.05l.09,4.31Z"></path></g><g style="opacity:0.30000000000000004"><path d="M248.16,454.32s5,1.23,4.37,2-19.53,1.12-27.89.59l0-.35,22.08-.22S247.2,454.37,248.16,454.32Z"></path></g><path d="M224.4,456.55l.28,0,.82,0,3,.07c2.55,0,6.06.05,9.95,0s7.4-.2,9.95-.33l3-.17.81-.06.29,0h-.29l-.82,0-3,.11c-2.54.09-6.06.21-9.94.27s-7.4.08-9.95.08H224.4Z" style="fill:#263238"></path><path d="M246.74,456.57a5.63,5.63,0,0,1,.53-1.35,6,6,0,0,1,1-1.09,2.12,2.12,0,0,0-1.18,1A2,2,0,0,0,246.74,456.57Z" style="fill:#263238"></path><path d="M241.8,454.35s.27-.24.51-.6.38-.67.33-.7-.27.24-.5.6S241.75,454.32,241.8,454.35Z" style="fill:#263238"></path><path d="M240.44,453.71s.3-.13.58-.37.47-.47.44-.51-.3.13-.58.37S240.4,453.68,240.44,453.71Z" style="fill:#263238"></path><path d="M239.56,452.27a2,2,0,0,0,.87.09,2,2,0,0,0,.86-.1,2.18,2.18,0,0,0-.87-.09A2.26,2.26,0,0,0,239.56,452.27Z" style="fill:#263238"></path><path d="M239.25,451.25a1.69,1.69,0,0,0,1,.25,1.73,1.73,0,0,0,1-.15,6.57,6.57,0,0,0-1,0A5.66,5.66,0,0,0,239.25,451.25Z" style="fill:#263238"></path><path d="M242.33,453a3.44,3.44,0,0,0,1.07,0,5.7,5.7,0,0,0,1.12-.26,2.67,2.67,0,0,0,.65-.26.5.5,0,0,0,.25-.31.35.35,0,0,0-.17-.39,2,2,0,0,0-2.4.57,1.77,1.77,0,0,0-.33.67c0,.17,0,.27,0,.27a2.45,2.45,0,0,1,.46-.85,1.92,1.92,0,0,1,.9-.57,1.74,1.74,0,0,1,1.27.06c.17.11.11.3-.07.4a3.16,3.16,0,0,1-.6.25,7.45,7.45,0,0,1-1.09.29C242.74,453,242.33,453,242.33,453Z" style="fill:#263238"></path><path d="M242.61,453a1,1,0,0,0,.1-.69,1.57,1.57,0,0,0-.3-.72,1.08,1.08,0,0,0-.9-.49.39.39,0,0,0-.32.46,1,1,0,0,0,.19.44,3.11,3.11,0,0,0,.52.59,1.51,1.51,0,0,0,.62.39s-.22-.17-.52-.48a3.36,3.36,0,0,1-.46-.59c-.15-.2-.26-.58,0-.63a1,1,0,0,1,.71.41,1.51,1.51,0,0,1,.31.64A3.32,3.32,0,0,1,242.61,453Z" style="fill:#263238"></path><path d="M224.64,452.33s.48-.05,1.23,0a5.66,5.66,0,0,1,2.69,1,5,5,0,0,1,1.72,2.16c.27.66.3,1.1.34,1.1a.74.74,0,0,0,0-.31,4.21,4.21,0,0,0-.19-.83,4.82,4.82,0,0,0-1.74-2.27,5.42,5.42,0,0,0-2.8-1,4.69,4.69,0,0,0-.91,0C224.75,452.28,224.64,452.31,224.64,452.33Z" style="fill:#263238"></path><path d="M232.7,455.12a9.66,9.66,0,0,0,2.43.18,10.2,10.2,0,0,0,2.42-.22c0-.06-1.09,0-2.43,0S232.71,455.07,232.7,455.12Z" style="fill:#263238"></path><path d="M229.45,455.18s.09.21.21.44.18.43.24.43.08-.25-.06-.51S229.49,455.14,229.45,455.18Z" style="fill:#263238"></path><path d="M228.2,453.78s.07.2.24.36.35.26.39.22-.07-.2-.25-.36S228.23,453.75,228.2,453.78Z" style="fill:#263238"></path><path d="M226.43,453.17c0,.05.23.05.48.12s.42.19.46.16-.1-.25-.4-.34S226.41,453.12,226.43,453.17Z" style="fill:#263238"></path><path d="M225.17,452.89s.08.12.22.17.27.05.29,0-.08-.13-.22-.18S225.19,452.84,225.17,452.89Z" style="fill:#263238"></path><path d="M174.75,389.34c-.08,1.79-6.57,57.48-6.57,57.48l15.29,3.39,14.11-56.74Z" style="fill:#ffbe9d"></path><path d="M184.16,451.69l.35-1.6-16.26-3.63-1.19,5.29,1,.28c4.41,1.24,22.52,6,25.69,5.83C197.27,457.67,184.16,451.69,184.16,451.69Z" style="fill:#FF725E"></path><g style="opacity:0.30000000000000004"><path d="M173,453a5.33,5.33,0,0,0-1.35-3.67,5.91,5.91,0,0,0-3.54-1.95l-.94,4.21Z"></path></g><g style="opacity:0.30000000000000004"><path d="M190.52,454.84s4.53,2.38,3.77,3-19.23-3.57-27.23-6.07l.1-.33,21.5,5S189.57,454.66,190.52,454.84Z"></path></g><path d="M166.91,451.35l.27.09.79.23,2.91.78c2.47.64,5.88,1.49,9.67,2.35s7.24,1.57,9.74,2.05l3,.55.81.13.29,0-.28-.07-.8-.17-3-.61c-2.5-.52-5.94-1.24-9.73-2.1s-7.2-1.69-9.68-2.3L168,451.6l-.8-.19A1,1,0,0,0,166.91,451.35Z" style="fill:#263238"></path><path d="M188.6,456.69a6,6,0,0,1,.84-1.19,6.61,6.61,0,0,1,1.24-.82,2.23,2.23,0,0,0-1.38.69A2,2,0,0,0,188.6,456.69Z" style="fill:#263238"></path><path d="M184.33,453.36s.33-.17.64-.47.53-.56.49-.59-.32.17-.63.46S184.29,453.32,184.33,453.36Z" style="fill:#263238"></path><path d="M183.16,452.42a1.4,1.4,0,0,0,.65-.23c.33-.17.58-.35.55-.39s-.32.05-.65.22S183.14,452.37,183.16,452.42Z" style="fill:#263238"></path><path d="M182.65,450.81a4.09,4.09,0,1,0,.87.11A2.14,2.14,0,0,0,182.65,450.81Z" style="fill:#263238"></path><path d="M182.59,449.74a1.72,1.72,0,0,0,.88.47,1.83,1.83,0,0,0,1,.1,5.12,5.12,0,0,0-.94-.28A6.82,6.82,0,0,0,182.59,449.74Z" style="fill:#263238"></path><path d="M185.17,452.17a3.3,3.3,0,0,0,1,.22,6.15,6.15,0,0,0,1.16,0,3.39,3.39,0,0,0,.68-.1.56.56,0,0,0,.33-.24.4.4,0,0,0-.07-.43,2,2,0,0,0-2.47,0,1.69,1.69,0,0,0-.49.57c-.08.15-.09.25-.08.25a2.54,2.54,0,0,1,.65-.71,1.9,1.9,0,0,1,1-.34,1.73,1.73,0,0,1,1.22.36c.14.15,0,.31-.17.37a3.32,3.32,0,0,1-.63.11,8.65,8.65,0,0,1-1.13,0C185.57,452.22,185.18,452.14,185.17,452.17Z" style="fill:#263238"></path><path d="M185.43,452.27s.22-.19.27-.64a1.6,1.6,0,0,0-.13-.77,1.09,1.09,0,0,0-.76-.69.39.39,0,0,0-.41.38,1,1,0,0,0,.08.47,3,3,0,0,0,.36.69,1.62,1.62,0,0,0,.51.53s-.17-.22-.39-.59a3.94,3.94,0,0,1-.31-.68c-.1-.24-.11-.63.16-.61s.48.33.59.56a1.63,1.63,0,0,1,.16.7A3,3,0,0,1,185.43,452.27Z" style="fill:#263238"></path><path d="M168.15,447.31s.47.06,1.19.31a5.58,5.58,0,0,1,2.38,1.58,5.07,5.07,0,0,1,1.16,2.52,10.33,10.33,0,0,1,.06,1.14s.05-.11.07-.3a3.92,3.92,0,0,0,0-.86,4.84,4.84,0,0,0-1.14-2.61,5.46,5.46,0,0,0-2.5-1.6,4.7,4.7,0,0,0-.9-.18A.94.94,0,0,0,168.15,447.31Z" style="fill:#263238"></path><path d="M175.31,451.94a9.46,9.46,0,0,0,2.31.75,10.06,10.06,0,0,0,2.41.36c0-.05-1.07-.23-2.36-.54S175.33,451.89,175.31,451.94Z" style="fill:#263238"></path><path d="M172.14,451.22s0,.23.1.48.07.46.13.47.14-.22.07-.5S172.18,451.19,172.14,451.22Z" style="fill:#263238"></path><path d="M171.25,449.57s0,.21.16.4.28.33.32.31,0-.21-.15-.4S171.3,449.54,171.25,449.57Z" style="fill:#263238"></path><path d="M169.68,448.55c0,.06.22.1.44.23s.37.29.42.27,0-.27-.32-.43S169.68,448.5,169.68,448.55Z" style="fill:#263238"></path><path d="M168.53,448s.05.14.17.22.25.11.28.06,0-.14-.17-.22S168.56,447.94,168.53,448Z" style="fill:#263238"></path><path d="M232.15,141.32c-.41-1.19-1.42-2.08-1.91-3.24-.73-1.74-.19-3.71,0-5.58s-.2-4.15-1.91-4.92a17.72,17.72,0,0,1-2.2-.73c-1.34-.84-1.27-2.74-1.39-4.31a8.82,8.82,0,0,0-.78-3l.28-.09a4.44,4.44,0,0,1,5.11,2.53,2.6,2.6,0,0,1-.18,2.51,1.65,1.65,0,0,1-1.94.63,1.38,1.38,0,0,1-.71-1.52,1,1,0,0,1,1.1-.62,1.07,1.07,0,0,1,.77.43c.12.18.13.31.15.3s0-.13,0-.35a1.17,1.17,0,0,0-.85-.61,1.49,1.49,0,0,0-.77.06,1.13,1.13,0,0,0-.67.68,1.7,1.7,0,0,0,.83,2,2.07,2.07,0,0,0,2.52-.7,3.07,3.07,0,0,0,.3-3,4.94,4.94,0,0,0-5.26-3,3.29,3.29,0,0,0,.31-2.66,3.74,3.74,0,0,0-2.31-2.32,5,5,0,0,0-2.93-.16,7.43,7.43,0,0,0-2.31,1c-.65.42-1.15.88-1.63,1.19a2.84,2.84,0,0,1-1.35.52,2.12,2.12,0,0,1-1.21-.25s.31.48,1.22.48a2.92,2.92,0,0,0,1.51-.47c.53-.3,1.06-.75,1.68-1.12a5.49,5.49,0,0,1,4.82-.71,3.22,3.22,0,0,1,2,2,2.59,2.59,0,0,1-.69,2.67,5.83,5.83,0,0,0-2.16-2.22c-2-1.13-5-.58-6,1.48l-16.41-5.64a8,8,0,0,0-7.54-1.51l-.34-.06a5.5,5.5,0,0,0-2.77.46,9,9,0,0,0-2.79,2.44,6.41,6.41,0,0,1-1.57,1.31,3,3,0,0,1-.32.12,14.44,14.44,0,0,1-2.19.08c-1.38-.32-2.81-1.11-4.51-1.28a7,7,0,0,0-2.84.2,5.47,5.47,0,0,0-2.54,1.61,4.33,4.33,0,0,0-1.1,2.91,8.22,8.22,0,0,0,.36,2.27,7.78,7.78,0,0,0-.48,3.1c.07,1.39.47,2.85.49,4.21a4,4,0,0,1-1.35.69c-.86.27-1.79.4-2.67.74a6.22,6.22,0,0,0-3.54,3.75,4.39,4.39,0,0,0,.44,4.14,6.33,6.33,0,0,0,1.16,5.29,31.7,31.7,0,0,1,2.57,2.75c1.08,1.67.92,3.82,1.2,5.79s1.41,4.21,3.4,4.34c1.6.1,3-1.24,4.64-1.11,2.24.18,3.16,2.87,4.46,4.71a8,8,0,0,0,7.45,3.24c2-.27,4.06-1.35,6.05-.85,2.51.64,4,3.58,6.59,3.95,1.9.27,3.67-1,5.09-2.3s2.85-2.8,4.75-3.14c2.28-.41,4.48,1,6.78,1.28a7.67,7.67,0,0,0,7.56-3.79c1.26-2.29,1.25-5.1,2.44-7.43a41.94,41.94,0,0,1,3-4.27C232,144.81,232.73,143,232.15,141.32Zm-65.8-7.38a1.34,1.34,0,0,0-.56,0s.17,0,.45.11l-.31.23a6,6,0,0,0-1.94,3,4.31,4.31,0,0,1-.1-3.41,5.75,5.75,0,0,1,3.28-3.4c.8-.3,1.71-.43,2.64-.71a4.29,4.29,0,0,0,1.14-.51,3.77,3.77,0,0,1-.47,1.55C169.62,132.29,167.8,132.92,166.35,133.94Zm11.2-18.4a8.64,8.64,0,0,0-6.18,4.74,6.48,6.48,0,0,1-.16-1.37,3.82,3.82,0,0,1,.95-2.54,5.52,5.52,0,0,1,4.88-1.65,11.55,11.55,0,0,1,2.69.69A14.42,14.42,0,0,0,177.55,115.54Zm8.23-.69c-.2.09-.41.15-.61.22a10.92,10.92,0,0,0,.83-.84,9.25,9.25,0,0,1,2.62-2.42,5.11,5.11,0,0,1,2.43-.52,6.49,6.49,0,0,0-1.24.61C188.41,112.8,187.3,114.15,185.78,114.85Z" style="fill:#263238"></path><path d="M221.35,149.2c.78-4.92.54-13,.12-19.61a10.46,10.46,0,0,0-11.54-9.75l-17.19,1.82a3.47,3.47,0,0,0-3.11,3.53l1.77,42.23h-4v7.65a15.84,15.84,0,0,0,31.68,0v-6.62s-4.12-1.35-6.62-1.21l-.61,0c0-3.87.32-6.9.32-6.9S219.78,159.11,221.35,149.2Z" style="fill:#ffbe9d"></path><path d="M218.9,136a1.28,1.28,0,0,1-1.23,1.28,1.21,1.21,0,0,1-1.31-1.15,1.28,1.28,0,0,1,1.23-1.28A1.22,1.22,0,0,1,218.9,136Z" style="fill:#263238"></path><path d="M219.72,133.8c-.16.16-1.12-.55-2.49-.55s-2.37.69-2.52.52.09-.37.53-.69a3.55,3.55,0,0,1,2-.62,3.37,3.37,0,0,1,2,.64C219.65,133.42,219.8,133.72,219.72,133.8Z" style="fill:#263238"></path><path d="M205.53,136a1.27,1.27,0,0,1-1.22,1.28,1.21,1.21,0,0,1-1.31-1.15,1.26,1.26,0,0,1,1.22-1.28A1.22,1.22,0,0,1,205.53,136Z" style="fill:#263238"></path><path d="M206.28,134.05c-.16.17-1.12-.54-2.49-.54s-2.37.69-2.52.52.09-.37.53-.69a3.4,3.4,0,0,1,2-.62,3.3,3.3,0,0,1,2,.64C206.21,133.68,206.36,134,206.28,134.05Z" style="fill:#263238"></path><path d="M211.24,144.19a9.07,9.07,0,0,1,2.22-.4c.35,0,.68-.1.74-.34a1.81,1.81,0,0,0-.23-1c-.33-.84-.67-1.73-1-2.66-1.43-3.78-2.47-6.89-2.31-6.95a47.25,47.25,0,0,1,2.87,6.75c.34.94.67,1.82,1,2.68a2,2,0,0,1,.18,1.37.89.89,0,0,1-.58.51,2.24,2.24,0,0,1-.59.08A9,9,0,0,1,211.24,144.19Z" style="fill:#263238"></path><path d="M212.19,160.37a25.2,25.2,0,0,1-13.27-3.54s3.22,6.81,13.13,5.88Z" style="fill:#eb996e"></path><path d="M210.66,147.49a2.47,2.47,0,0,0-2.21-.92,2.25,2.25,0,0,0-1.55.84,1.42,1.42,0,0,0-.11,1.63,1.68,1.68,0,0,0,1.79.45,5.28,5.28,0,0,0,1.75-1,1.52,1.52,0,0,0,.39-.41.45.45,0,0,0,0-.51" style="fill:#eb996e"></path><path d="M207.22,145.14c.22,0,.22,1.47,1.49,2.52s2.85.89,2.86,1.1-.35.29-1,.31a3.66,3.66,0,0,1-2.38-.84,3.17,3.17,0,0,1-1.16-2.11C207,145.5,207.12,145.13,207.22,145.14Z" style="fill:#263238"></path><path d="M206.89,131.66c-.13.37-1.5.19-3.1.39s-2.9.63-3.11.29c-.1-.15.13-.5.65-.86a5.09,5.09,0,0,1,2.31-.81,5.27,5.27,0,0,1,2.43.28C206.66,131.19,207,131.48,206.89,131.66Z" style="fill:#263238"></path><path d="M219.22,131c-.24.31-1.19,0-2.32,0s-2.09.21-2.31-.12c-.1-.16,0-.47.47-.76a3.26,3.26,0,0,1,1.88-.51,3.22,3.22,0,0,1,1.85.62C219.19,130.53,219.32,130.85,219.22,131Z" style="fill:#263238"></path><path d="M225.16,120.75c-.68-2.64-2.68-5.08-5.36-5.58-1.75-.32-3.54.19-5.31.08-1.47-.09-2-1.26-3.39-1.72-2.32-.76-4.1-3.34-9.11-2.8-1.34.15-3.06,1.7-4.29,3.46-1.92-.83-4.45.06-5.83.67-2.87,1.25-4.66,4.48-5.23,7.76s-.1,6.65.36,9.95c.21,1.5.42,3,.64,4.52a8.06,8.06,0,0,0,.79,2.88l-2.28,21.2A8.82,8.82,0,0,0,197.37,155c.88-4.17-1.44-8.41-1.07-12.66.22-2.53,1.65-4.88,1.64-7.42a10,10,0,0,0-.36-2.47h0c4-3.27,5.06-5.9,4.89-9a7.72,7.72,0,0,0,4.2,1.39c2.12,0,4.33-.8,6.31,0a11,11,0,0,1,3.53,2.86c1.09,1.08,2.5,2.07,4,1.86a10.49,10.49,0,0,0,2.08-.73,2.5,2.5,0,0,1,2.14,0A16.55,16.55,0,0,0,225.16,120.75Z" style="fill:#263238"></path><path d="M165.92,142.46a17.53,17.53,0,0,0,3.29,1.88,11.63,11.63,0,0,0,4.3.91A9.15,9.15,0,0,0,179,143.6a8.36,8.36,0,0,0,3.54-5.8,6.05,6.05,0,0,0-.75-3.72,4,4,0,0,0-3.25-2,2.93,2.93,0,0,0-1.88.62,3.72,3.72,0,0,0-1.16,1.73,4.31,4.31,0,0,0,.76,4.13,7.21,7.21,0,0,0,3.92,2.34,11.25,11.25,0,0,0,4.8.08,10.42,10.42,0,0,0,4.37-2,8.24,8.24,0,0,0,2.71-3.73,8.34,8.34,0,0,0,.36-4.44,6.56,6.56,0,0,0-.74-2,4.6,4.6,0,0,0-1.35-1.58,3.21,3.21,0,0,0-1.83-.69,1.69,1.69,0,0,0-1.53.86,2.42,2.42,0,0,0-.19,1.79,3.59,3.59,0,0,0,1,1.55,8.63,8.63,0,0,0,11.64-.45,9,9,0,0,0,2.19-3.78,10.06,10.06,0,0,0,.31-3.74,4.32,4.32,0,0,1,.16,1,8.59,8.59,0,0,1-.26,2.83,9.35,9.35,0,0,1-2.18,3.93,8.62,8.62,0,0,1-5.32,2.61,8.78,8.78,0,0,1-6.85-2.05,3.88,3.88,0,0,1-1.1-1.75,2.9,2.9,0,0,1,.23-2.15,2.18,2.18,0,0,1,1.94-1.11,3.72,3.72,0,0,1,2.13.78,5.07,5.07,0,0,1,1.49,1.73,7.3,7.3,0,0,1,.81,2.19,8.78,8.78,0,0,1-.37,4.72,8.87,8.87,0,0,1-2.87,4,11,11,0,0,1-4.6,2.08,11.73,11.73,0,0,1-5-.09,7.79,7.79,0,0,1-4.21-2.52,4.89,4.89,0,0,1-1-2.23,5.25,5.25,0,0,1,.19-2.4,4.25,4.25,0,0,1,1.33-2,3.48,3.48,0,0,1,2.22-.72,4.43,4.43,0,0,1,3.64,2.28,6.58,6.58,0,0,1,.79,4,8.74,8.74,0,0,1-3.77,6.06,9.31,9.31,0,0,1-5.7,1.64,11.53,11.53,0,0,1-4.38-1,11.75,11.75,0,0,1-2.46-1.43c-.26-.19-.44-.36-.57-.46Z" style="fill:#455a64"></path><path d="M225.74,125.23a1.88,1.88,0,0,1-.48.33,5.42,5.42,0,0,1-1.57.58,6.68,6.68,0,0,1-2.66,0,7.25,7.25,0,0,1-3.13-1.62,9.38,9.38,0,0,1-2.46-3.49,3.14,3.14,0,0,1-.08-2.47,2.12,2.12,0,0,1,.93-1,1.56,1.56,0,0,1,1.44,0,2.2,2.2,0,0,1,1,2.54,3.64,3.64,0,0,1-2,2.08,7.58,7.58,0,0,1-5.79.09,14.32,14.32,0,0,1-2.67-1.29,9.83,9.83,0,0,1-2.27-1.81,2.28,2.28,0,0,1-.23-2.84,1.48,1.48,0,0,1,1.44-.51,2.13,2.13,0,0,1,1.22.77,1.86,1.86,0,0,1,.39,1.36,2.36,2.36,0,0,1-.56,1.23,3.21,3.21,0,0,1-2.19,1.1,5.72,5.72,0,0,1-2.25-.29,16.49,16.49,0,0,1-1.91-.74,6.87,6.87,0,0,1-2.79-2.14,3.91,3.91,0,0,1-.72-2.56,2.9,2.9,0,0,1,.58-1.57,1.51,1.51,0,0,1,.44-.39,3.06,3.06,0,0,0-.81,2,3.73,3.73,0,0,0,.75,2.36,6.56,6.56,0,0,0,2.71,2,8.75,8.75,0,0,0,4,.94,2.77,2.77,0,0,0,1.88-1,1.54,1.54,0,0,0,.14-2c-.45-.59-1.41-.85-1.86-.24a1.43,1.43,0,0,0-.27,1.08,2.16,2.16,0,0,0,.5,1.1,9.53,9.53,0,0,0,2.14,1.68,13.2,13.2,0,0,0,2.57,1.23,7,7,0,0,0,5.38,0,3.08,3.08,0,0,0,1.69-1.75,1.69,1.69,0,0,0-.77-2,1.25,1.25,0,0,0-1.7.74,2.74,2.74,0,0,0,.07,2.1,9.08,9.08,0,0,0,2.3,3.36,7,7,0,0,0,2.94,1.62,6.49,6.49,0,0,0,2.55.13A8.38,8.38,0,0,0,225.74,125.23Z" style="fill:#455a64"></path><path d="M196.86,148.49a1.55,1.55,0,0,1-.42.34,4,4,0,0,1-1.46.58,4.67,4.67,0,0,1-2.47-.16A4,4,0,0,1,190,147.1a1.69,1.69,0,0,1,.38-2,1.76,1.76,0,0,1,2.15,0,4.41,4.41,0,0,1,1.54,4.27,5.24,5.24,0,0,1-2.89,4.09,5.91,5.91,0,0,1-5.38-.4,6,6,0,0,1-2.06-1.91,3.43,3.43,0,0,1-.49-2.73,2.61,2.61,0,0,1,.71-1.22,1.8,1.8,0,0,1,1.33-.51,2.62,2.62,0,0,1,2.14,1.43,5.4,5.4,0,0,1,.59,2.34,8.17,8.17,0,0,1-.22,2.23,7,7,0,0,1-2,3.47,5,5,0,0,1-5.45,1,4.29,4.29,0,0,1-1.3-.88,1.65,1.65,0,0,1-.34-.42,6.6,6.6,0,0,0,1.72,1.1,4.85,4.85,0,0,0,2.34.29,4.75,4.75,0,0,0,2.76-1.33,6.64,6.64,0,0,0,1.8-3.29,7.35,7.35,0,0,0,.18-2.11,4.87,4.87,0,0,0-.55-2.11,2.11,2.11,0,0,0-1.72-1.17,1.62,1.62,0,0,0-1.5,1.36,2.86,2.86,0,0,0,.43,2.3,5.58,5.58,0,0,0,1.87,1.74A5.45,5.45,0,0,0,191,153a4.78,4.78,0,0,0,2.62-3.69,4,4,0,0,0-1.3-3.82,1.32,1.32,0,0,0-1.63,0,1.29,1.29,0,0,0-.29,1.5,3.69,3.69,0,0,0,2.22,2,4.71,4.71,0,0,0,2.34.24A6,6,0,0,0,196.86,148.49Z" style="fill:#455a64"></path><path d="M155.55,391.58s6.69,13,24.13,6.68c0,0,17.08,9.28,33.42-1.11,0,0,21.15,2.83,32.66-2.74L231,266.77l-1.88-19.6H182.41s-13.86,6.31-16.09,37.12-7,73.13-7,73.13Z" style="fill:#263238"></path><path d="M212.1,397.54s0-.13,0-.39-.06-.65-.1-1.13c-.08-1-.19-2.49-.34-4.36-.28-3.78-.65-9.26-1.05-16-.81-13.54-1.67-32.28-2.12-53s-.4-39.47-.18-53c.11-6.79.23-12.28.36-16.07.06-1.88.11-3.34.15-4.37,0-.48,0-.86,0-1.14a1.88,1.88,0,0,1,0-.38,1.59,1.59,0,0,1,0,.38v1.14c0,1,0,2.5-.05,4.37,0,3.82-.11,9.31-.19,16.07-.12,13.57-.12,32.32.33,53s1.26,39.43,2,53c.37,6.76.67,12.23.89,16,.1,1.87.18,3.34.24,4.36,0,.48,0,.86.05,1.14A2.29,2.29,0,0,1,212.1,397.54Z" style="fill:#455a64"></path><path d="M216.2,361s.1-.14.36-.21a1.74,1.74,0,0,1,1.14.14,2,2,0,0,1,1.07,1.35,1.94,1.94,0,0,1-3.08,1.76,2,2,0,0,1-.61-1.62,1.72,1.72,0,0,1,.46-1.05c.19-.19.35-.23.36-.21a2.46,2.46,0,0,0-.45,1.28,1.66,1.66,0,0,0,.55,1.23,1.5,1.5,0,0,0,2.3-1.31,1.6,1.6,0,0,0-.78-1.1A2.25,2.25,0,0,0,216.2,361Z" style="fill:#455a64"></path><path d="M215.16,323.1s.1-.13.36-.2a1.67,1.67,0,0,1,1.14.14,1.9,1.9,0,0,1,1.07,1.35,1.94,1.94,0,0,1-3.07,1.75,1.91,1.91,0,0,1-.61-1.61,1.66,1.66,0,0,1,.45-1c.2-.2.35-.23.36-.21a2.45,2.45,0,0,0-.45,1.27,1.65,1.65,0,0,0,.55,1.23,1.49,1.49,0,0,0,2.3-1.3,1.66,1.66,0,0,0-.77-1.11A2.49,2.49,0,0,0,215.16,323.1Z" style="fill:#455a64"></path><path d="M214.55,289.58s.1-.13.37-.2a1.65,1.65,0,0,1,1.13.14,1.93,1.93,0,0,1,1.08,1.35,1.94,1.94,0,0,1-3.08,1.75,1.94,1.94,0,0,1-.61-1.61,1.74,1.74,0,0,1,.45-1.05c.2-.19.35-.23.37-.21a2.4,2.4,0,0,0-.46,1.27,1.61,1.61,0,0,0,.56,1.23,1.49,1.49,0,0,0,2.29-1.3,1.66,1.66,0,0,0-.77-1.11A2.48,2.48,0,0,0,214.55,289.58Z" style="fill:#455a64"></path><path d="M213.36,253.72s.1-.14.36-.21a1.69,1.69,0,0,1,1.14.15,1.93,1.93,0,0,1,1.07,1.35,1.81,1.81,0,0,1-1,1.87,1.84,1.84,0,0,1-2.11-.12,2,2,0,0,1-.61-1.62,1.72,1.72,0,0,1,.46-1c.2-.19.35-.23.36-.21a2.46,2.46,0,0,0-.45,1.28,1.66,1.66,0,0,0,.55,1.23,1.5,1.5,0,0,0,2.3-1.31,1.6,1.6,0,0,0-.78-1.1A2.25,2.25,0,0,0,213.36,253.72Z" style="fill:#455a64"></path></g><g id="freepik--Message--inject-2"><polygon points="274.24 214.9 510.11 213.19 516.68 373.55 272.44 371.29 274.24 214.9" style="fill:#FF725E"></polygon><path d="M274.23,214.9l111.64-90.33a12.82,12.82,0,0,1,16.19.06l108.05,88.56" style="fill:#FF725E"></path><g style="opacity:0.30000000000000004"><path d="M274.23,214.9l111.64-90.33a12.82,12.82,0,0,1,16.19.06l108.05,88.56"></path></g><path d="M272.44,371.29c-.29-.28,18.59-20.9,42.18-46.05s42.94-45.32,43.24-45.05-18.59,20.89-42.18,46.05S272.74,371.56,272.44,371.29Z" style="fill:#263238"></path><path d="M516.68,373.55c-.3.27-18.69-19.93-41.07-45.11s-40.28-45.82-40-46.09,18.69,19.93,41.07,45.12S517,373.28,516.68,373.55Z" style="fill:#263238"></path><g style="opacity:0.5"><polyline points="510.11 213.19 391.66 307.81 274.24 214.9"></polyline></g><polygon points="286.11 223.66 285.75 150 492.28 147.55 494.61 225.06 391.65 306.57 286.11 223.66" style="fill:#fafafa"></polygon><path d="M286.11,223.66s.67.5,1.94,1.49l5.6,4.36L315,246.18l76.81,60.22h-.26l102.93-81.54-.1.21c-.44-14.78-.91-30.3-1.39-46.08-.31-10.63-.63-21.13-.94-31.43l.26.25-206.53,2.35.16-.16c.08,23.17.15,41.58.19,54.2,0,6.31,0,11.17,0,14.46v3.73c0,.84,0,1.27,0,1.27s0-.42,0-1.25,0-2.08,0-3.71c0-3.29-.07-8.14-.12-14.44-.08-12.64-.2-31.06-.35-54.26v-.17h.16l206.54-2.53h.25v.26c.31,10.29.62,20.79.94,31.42.48,15.79.94,31.3,1.39,46.09v.13l-.1.08-103,81.47-.13.1-.13-.1-76.76-60.42-21.22-16.75L288,225.18C286.74,224.18,286.11,223.66,286.11,223.66Z" style="fill:#263238"></path><path d="M459.64,184.65c0,.14-31.59.45-70.54.68s-70.55.32-70.55.17,31.58-.45,70.55-.69S459.64,184.5,459.64,184.65Z" style="fill:#263238"></path><path d="M459.64,205.45c0,.15-31.59.46-70.54.69s-70.55.31-70.55.17,31.58-.45,70.55-.69S459.64,205.31,459.64,205.45Z" style="fill:#263238"></path><path d="M459.64,229.44c0,.14-31.59.45-70.54.69s-70.55.31-70.55.16,31.58-.45,70.55-.68S459.64,229.29,459.64,229.44Z" style="fill:#263238"></path><path d="M459.64,253.42c0,.15-30.13.44-67.3.67s-67.3.29-67.31.15,30.13-.44,67.31-.67S459.64,253.28,459.64,253.42Z" style="fill:#263238"></path><path d="M433.22,274.47a4.35,4.35,0,0,1-.82.06l-2.38.07-8.72.14-28.79.41c-11.24.19-21.43.25-28.8.26l-8.72,0-2.38,0a5.2,5.2,0,0,1-.82-.05,4.35,4.35,0,0,1,.82-.06l2.38-.06,8.72-.15,28.79-.41c11.24-.19,21.43-.25,28.79-.26l8.73,0,2.38,0A6.47,6.47,0,0,1,433.22,274.47Z" style="fill:#263238"></path><path d="M406.63,294.71c0,.14-6.73.26-15,.26s-15-.12-15-.26,6.74-.26,15-.26S406.63,294.56,406.63,294.71Z" style="fill:#263238"></path><circle cx="476.15" cy="253.42" r="24.95" style="fill:#263238"></circle><circle cx="469.66" cy="253.42" r="24.95" style="fill:#455a64"></circle><path d="M472.83,241.81v20.74H469V245h-4.39v-3.23Z" style="fill:#ebebeb"></path></g><g id="freepik--speech-bubble--inject-2"><path d="M287.73,116.35h22.82l-3.09-3.54v-8.49A8.32,8.32,0,0,0,299.14,96h0a8.31,8.31,0,0,0-8.31,8.32v8.07Z" style="fill:#FF725E"></path><path d="M296,115.23a3.52,3.52,0,1,0,6.89-1.18" style="fill:#FF725E"></path><rect x="298.17" y="92.54" width="2.24" height="4.76" style="fill:#FF725E"></rect><path d="M332.41,100.74a4.27,4.27,0,0,1-.16-.6c-.1-.43-.23-1-.4-1.76a22.63,22.63,0,0,0-.81-2.82c-.2-.54-.34-1.15-.61-1.76l-.85-1.94a34.72,34.72,0,0,0-6.05-8.94A33.57,33.57,0,0,0,312,75a33.2,33.2,0,0,0-7.74-2.2,33.78,33.78,0,0,0-8.66-.14,34.2,34.2,0,0,0-4.5.78c-.75.16-1.48.45-2.24.68a15.27,15.27,0,0,0-2.23.81A31.69,31.69,0,0,0,278.18,80a33.63,33.63,0,0,0-11.3,18.07,33.08,33.08,0,0,0-.65,11.6,32.06,32.06,0,0,0,3.43,11.48l.58,1.09.07.14,0,.15c-1.85,6-3.65,12-5.41,17.73l-.47-.43,14.29-7.45.17-.09.16.12a33.25,33.25,0,0,0,41.51-.72,34.6,34.6,0,0,0,7.51-8.8,37.33,37.33,0,0,0,3.65-8.86,38,38,0,0,0,1-7.17c0-1,0-1.86,0-2.63s-.12-1.38-.16-1.91-.08-.88-.1-1.17a1.71,1.71,0,0,1,0-.4,2.13,2.13,0,0,1,.07.39q0,.44.15,1.17c.06.53.13,1.16.22,1.92s0,1.65,0,2.64a36.25,36.25,0,0,1-.9,7.24,36.84,36.84,0,0,1-3.6,9,34.83,34.83,0,0,1-7.56,9A33.82,33.82,0,0,1,294,139.57,34.26,34.26,0,0,1,278.63,133l.34,0-14.27,7.47-.72.38.24-.81,5.4-17.73,0,.29-.59-1.11a32.83,32.83,0,0,1-3.5-11.73,33.2,33.2,0,0,1,.68-11.87,34.25,34.25,0,0,1,11.55-18.41,32.54,32.54,0,0,1,8.63-5.13,15.38,15.38,0,0,1,2.27-.82c.77-.22,1.51-.51,2.28-.67a32.12,32.12,0,0,1,4.57-.78,33.92,33.92,0,0,1,8.8.18,34.47,34.47,0,0,1,7.84,2.28,33.78,33.78,0,0,1,11.62,8.12,34.4,34.4,0,0,1,6,9.1c.29.7.57,1.35.82,2s.4,1.24.59,1.79a18.77,18.77,0,0,1,.75,2.85c.14.75.26,1.34.34,1.78A4.38,4.38,0,0,1,332.41,100.74Z" style="fill:#263238"></path></g><g id="freepik--Plant--inject-2"><path d="M608.31,338.21c3.27,11.05.79,25.26-3.17,36.08A54.7,54.7,0,0,1,584,401c-1.08.71-2.47,1.4-3.61.79A3.68,3.68,0,0,1,579,399a56.32,56.32,0,0,1,29.35-60.82" style="fill:#FF725E"></path><g style="opacity:0.2"><path d="M608.31,338.21c3.27,11.05.79,25.26-3.17,36.08A54.7,54.7,0,0,1,584,401c-1.08.71-2.47,1.4-3.61.79A3.68,3.68,0,0,1,579,399a56.32,56.32,0,0,1,29.35-60.82"></path></g><path d="M559.19,285.76c6.88-.19,11.42,7.46,12.11,14.32s-.83,14,1.18,20.56C575,329,582.86,335,585.22,343.43c2.8,9.93-2.65,20.24-2.91,30.55-.13,5,1,10.09.05,15a18.47,18.47,0,0,1-36.23.36c-1.61-7.72,1.8-15.93-.24-23.56-1.51-5.63-5.89-10.42-6.25-16.24-.42-6.93,4.94-12.92,5.94-19.79s-2.48-13.58-3-20.51c-.93-12.42,4.21-22.17,16.6-23.5" style="fill:#FF725E"></path><path d="M574.27,427.21a3.46,3.46,0,0,0,.21-.69c.12-.52.27-1.19.45-2,.37-1.73,1-4.24,1.7-7.33a238.58,238.58,0,0,1,16.63-46.69c1.37-2.87,2.51-5.17,3.32-6.76l.91-1.83a3.37,3.37,0,0,0,.28-.66,3,3,0,0,0-.39.59l-1,1.78c-.88,1.55-2.09,3.83-3.51,6.68a208.77,208.77,0,0,0-16.67,46.78c-.69,3.11-1.2,5.64-1.5,7.4-.13.81-.24,1.48-.33,2A3.42,3.42,0,0,0,574.27,427.21Z" style="fill:#263238"></path><path d="M559.47,319.64a7,7,0,0,0,.1,1.1c.09.77.22,1.82.38,3.14l1.53,11.55c1.29,9.75,3.07,23.21,4.94,38.1s3.48,28.38,4.63,38.15c.58,4.83,1.05,8.77,1.39,11.56.17,1.32.3,2.37.4,3.14a8.06,8.06,0,0,0,.18,1.09,6.5,6.5,0,0,0,0-1.1c-.07-.78-.16-1.83-.28-3.16-.29-2.8-.69-6.74-1.18-11.59-1-9.78-2.57-23.28-4.44-38.17s-3.72-28.35-5.14-38.09c-.72-4.81-1.31-8.73-1.72-11.51-.22-1.32-.39-2.36-.51-3.13A5.92,5.92,0,0,0,559.47,319.64Z" style="fill:#263238"></path><rect x="546.03" y="413.7" width="52.26" height="6.1" style="fill:#263238"></rect><polygon points="550.88 419.8 557.01 456.82 589.43 456.82 593.67 419.8 550.88 419.8" style="fill:#263238"></polygon><path d="M593.84,419.55c0,.15-9.65.38-21.56.53s-21.56.15-21.56,0,9.65-.38,21.56-.53S593.84,419.41,593.84,419.55Z" style="fill:#455a64"></path><path d="M592.06,438.08l-.29,0-.87,0a22.32,22.32,0,0,1-3.34-.13,10.2,10.2,0,0,1-4.94-1.86,6.93,6.93,0,0,1-2.15-2.54,5,5,0,0,1-.31-3.72,3.38,3.38,0,0,1,3.26-2.36,3,3,0,0,1,2,1,4.78,4.78,0,0,1,1,2.1c.63,3.16-1.59,6.68-5,7.78s-7.57-.8-9.27-4.25a7.08,7.08,0,0,1-.76-2.8,4.67,4.67,0,0,1,.76-2.88,3.64,3.64,0,0,1,2.6-1.56,3.12,3.12,0,0,1,2.75,1.36,4.85,4.85,0,0,1,.89,2.93,6.48,6.48,0,0,1-.75,2.9,9,9,0,0,1-4.16,3.94,16.92,16.92,0,0,1-5.33,1.51,11.67,11.67,0,0,1-5.3-.46,7.63,7.63,0,0,1-4-3.12,5.47,5.47,0,0,1-.52-4.72,4.28,4.28,0,0,1,3.29-2.93,4.19,4.19,0,0,1,3.82,1.42,3.62,3.62,0,0,1,.34,3.68,5.63,5.63,0,0,1-2.2,2.5,12.54,12.54,0,0,1-2.59,1.26c-.83.32-1.6.57-2.3.77a27.64,27.64,0,0,1-3.25.74l-.86.13-.29,0s.09,0,.28-.08l.85-.17c.74-.16,1.84-.41,3.22-.84.68-.21,1.44-.48,2.26-.8a12.41,12.41,0,0,0,2.52-1.27,5.42,5.42,0,0,0,2-2.39,3.24,3.24,0,0,0-.32-3.32,3.81,3.81,0,0,0-3.47-1.26,3.89,3.89,0,0,0-2.94,2.68,5,5,0,0,0,.5,4.34,7.22,7.22,0,0,0,3.75,2.91,11.36,11.36,0,0,0,5.08.42,16.7,16.7,0,0,0,5.16-1.47,8.55,8.55,0,0,0,3.93-3.73,5.09,5.09,0,0,0-.1-5.28,2.57,2.57,0,0,0-2.29-1.15,3.12,3.12,0,0,0-2.21,1.34,4.1,4.1,0,0,0-.67,2.56,6.74,6.74,0,0,0,.69,2.6c1.59,3.23,5.5,5.09,8.67,4s5.27-4.33,4.69-7.23a4.08,4.08,0,0,0-.9-1.91,2.51,2.51,0,0,0-1.72-.89,3,3,0,0,0-2.89,2.07,4.63,4.63,0,0,0,.26,3.46,6.65,6.65,0,0,0,2,2.45,10.2,10.2,0,0,0,4.79,1.89,26.41,26.41,0,0,0,3.31.22h.87Z" style="fill:#455a64"></path></g></svg>