<?xml version="1.0" encoding="iso-8859-1"?>
<!-- Generator: Adobe Illustrator 18.1.1, SVG Export Plug-In . SVG Version: 6.00 Build 0)  -->
<svg fill="#f2463d" version="1.1" id="Capa_1" xmlns="http://www.w3.org/2000/svg" xmlns:xlink="http://www.w3.org/1999/xlink" x="0px" y="0px"
	 viewBox="0 0 266.629 266.629" style="enable-background:new 0 0 266.629 266.629;" xml:space="preserve">
<g>
	<path d="M266.623,256.811c0-0.397-0.044-2.143-0.125-2.513l-2.252-171.102
		c-0.005-0.299-0.092-0.571-0.141-0.859c-0.033-0.19-0.038-0.375-0.092-0.566c-0.169-0.582-0.413-1.131-0.761-1.621
		c-0.12-0.179-0.305-0.31-0.451-0.473c-0.267-0.299-0.555-0.571-0.887-0.805c-0.12-0.087-0.185-0.212-0.315-0.288L136.053,3.307
		c-0.218-0.131-0.457-0.147-0.685-0.245c-0.359-0.152-0.696-0.31-1.077-0.381c-0.343-0.065-0.68-0.054-1.023-0.054
		c-0.348,0-0.685-0.011-1.033,0.054c-0.375,0.071-0.713,0.223-1.066,0.375c-0.228,0.098-0.473,0.114-0.696,0.245L4.232,78.584
		c-0.087,0.049-0.131,0.141-0.218,0.196c-0.451,0.305-0.838,0.658-1.175,1.066c-0.076,0.092-0.174,0.163-0.239,0.261
		c-0.359,0.511-0.62,1.082-0.794,1.692c-0.044,0.163-0.049,0.332-0.082,0.5c-0.054,0.305-0.141,0.598-0.147,0.908L0,255.403
		c-0.005,0.495,0.082,0.979,0.201,1.441c-0.283,1.12-0.245,2.513,0.223,3.628c0.843,2.018,2.823,3.53,5.015,3.53h255.636
		c0.022,0,0.044,0,0.06,0c0.016,0,0.033,0,0.049,0c0.071,0,0.131-0.234,0.201-0.234c0.326-0.027,0.642-0.179,0.952-0.288
		c2.431-0.517,4.291-2.546,4.291-5.14c0-0.228-0.054-0.457-0.082-0.674C266.58,257.388,266.623,257.083,266.623,256.811z
		 M91.561,163.733L15.67,84.426l117.582-70.12L250.29,84.48l-76.914,82.217l-38.84-38.28c-1.017-1.023-2.404-0.392-3.851-0.392
		c-0.005,0-0.011,0-0.016,0c-1.452,0-2.839-0.615-3.856,0.419L91.561,163.733z M12.336,96.674l71.181,74.385l-72.519,71.295
		L12.336,96.674z M181.088,174.214l72.459-77.387l1.925,146.05l-73.563-67.874L181.088,174.214z M18.433,253.124l112.279-113.948
		L247.57,253.124H18.433z"/>
</g>
<g>
</g>
<g>
</g>
<g>
</g>
<g>
</g>
<g>
</g>
<g>
</g>
<g>
</g>
<g>
</g>
<g>
</g>
<g>
</g>
<g>
</g>
<g>
</g>
<g>
</g>
<g>
</g>
<g>
</g>
</svg>
